<?xml version="1.0" encoding="UTF-8"?>
<svg width="19px" height="42px" viewBox="0 0 19 42" version="1.1" xmlns="http://www.w3.org/2000/svg" xmlns:xlink="http://www.w3.org/1999/xlink">
    <!-- Generator: Sketch 47.1 (45422) - http://www.bohemiancoding.com/sketch -->
    <title>logo_min</title>
    <desc>Created with Sketch.</desc>
    <defs></defs>
    <g id="Page-1" stroke="none" stroke-width="1" fill="none" fill-rule="evenodd">
        <g id="Desktop-HD" transform="translate(-329.000000, -117.000000)" fill="#FEFEFE">
            <g id="logo_min" transform="translate(329.000000, 116.000000)">
                <path d="M70.053,129.3138 L44.695,147.3418 C43.966,147.8598 42.939,147.3548 42.939,146.4778 L42.939,89.1588 C42.939,88.0778 43.414,87.0518 44.238,86.3528 L62.795,70.5908 C64.33,69.2868 66.622,69.4348 67.977,70.9248 L70.652,73.8678 C71.264,74.5418 71.603,75.4188 71.603,76.3298 L71.603,126.3088 C71.603,127.5028 71.026,128.6228 70.053,129.3138 M99.139,179.2308 L99.139,148.9308 C99.139,147.9358 98.737,146.9838 98.023,146.2908 L92.693,141.1168 C91.201,139.6688 91.201,137.2998 92.693,135.8518 L100.694,128.0848 C101.407,127.3928 101.81,126.4408 101.81,125.4458 L101.81,53.6918 C101.81,52.5088 101.24,51.3988 100.277,50.7098 L82.595,38.0628 C81.126,37.0128 79.117,37.1638 77.823,38.4208 L46.453,68.8698 C45.759,69.5448 44.57,69.0668 44.57,68.1128 L44.57,59.0368 C44.57,57.7658 43.912,56.5858 42.832,55.9178 L12.709,37.2808 C11.081,36.2738 8.955,36.6598 7.784,38.1748 L0.765,47.2588 C-0.521,48.9238 -0.145,51.3288 1.589,52.5208 L15.025,61.7588 C16.074,62.4808 16.674,63.6938 16.609,64.9658 L9.169,210.8508 C9.113,211.9388 9.543,212.9958 10.342,213.7368 L39.852,241.0798 C41.392,242.5068 43.806,242.3838 45.193,240.8088 L54.064,230.7318 C55.25,229.3858 55.286,227.3778 54.15,225.9888 L42.949,212.2908 C42.42,211.6448 42.127,210.8368 42.119,210.0018 L41.747,172.1378 C41.735,170.8948 42.354,169.7298 43.391,169.0428 L69.939,151.4798 C70.672,150.9948 71.664,151.5038 71.664,152.3638 L71.664,178.4898 C71.664,178.4898 70.223,213.4558 105.839,225.6348 C106.801,225.9638 107.673,224.9408 107.157,224.0878 C104.276,219.3258 99.139,206.9488 99.139,179.2308" id="Fill-1"></path>
                <path d="M216.7331,72.6696 C216.7041,73.3806 216.3611,74.0416 215.7971,74.4766 L154.5091,121.7876 C153.9401,122.2266 153.5961,122.8976 153.5731,123.6166 L151.4291,189.0076 C151.4081,189.6336 151.6331,190.2436 152.0551,190.7076 L160.9511,200.4936 C161.8021,201.4306 161.7841,202.8666 160.9091,203.7816 L152.0951,212.9956 C151.1231,214.0126 149.4891,213.9836 148.5531,212.9326 L123.8311,185.1836 C123.4131,184.7146 123.1941,184.0996 123.2231,183.4716 L130.3001,27.2186 C130.3441,26.2666 129.8221,25.3796 128.9701,24.9526 L122.7281,21.8316 C121.4771,21.2066 121.0191,19.6506 121.7321,18.4466 L128.0871,7.7226 C128.7451,6.6116 130.1631,6.2176 131.3011,6.8286 L157.7501,21.0326 C158.5961,21.4866 159.0911,22.3996 159.0121,23.3566 L158.5971,28.3346 C158.4091,30.5916 161.1561,31.8386 162.7311,30.2116 L190.3051,1.7336 C191.1521,0.8586 192.5181,0.7526 193.4891,1.4866 L217.8911,19.9126 C218.5231,20.3896 218.8801,21.1456 218.8471,21.9366 L216.7331,72.6696 Z M157.7141,58.1796 C157.2141,58.6086 156.9101,59.2246 156.8761,59.8836 L155.0091,95.3506 C154.8981,97.4576 157.3561,98.6806 158.9691,97.3216 L185.4411,75.0296 C185.9601,74.5936 186.2701,73.9586 186.2971,73.2816 L187.6971,37.8146 C187.7801,35.7126 185.3171,34.5196 183.7191,35.8896 L157.7141,58.1796 Z" id="Fill-3"></path>
            </g>
        </g>
    </g>
</svg>