<?xml version="1.0" encoding="UTF-8"?>
<svg width="527px" height="457px" viewBox="0 0 527 457" version="1.1" xmlns="http://www.w3.org/2000/svg" xmlns:xlink="http://www.w3.org/1999/xlink">
    <!-- Generator: Sketch 47.1 (45422) - http://www.bohemiancoding.com/sketch -->
    <title>Logo</title>
    <desc>Created with Sketch.</desc>
    <defs>
        <polygon id="path-1" points="0.988500939 0.051 60.9346 0.051 60.9346 197.173145 0.988500939 197.173145 0.988500939 0.051"></polygon>
        <polygon id="path-3" points="84.415 0.856727058 84.415 160.693585 0.11592271 160.693585 0.11592271 0.856727058 84.415 0.856727058"></polygon>
    </defs>
    <g id="Page-1" stroke="none" stroke-width="1" fill="none" fill-rule="evenodd">
        <g id="Desktop-HD" transform="translate(-720.000000, -447.000000)">
            <g id="Logo" transform="translate(720.000000, 446.000000)">
                <path d="M73.0752,119.5017 L47.7172,137.5297 C46.9882,138.0477 45.9612,137.5427 45.9612,136.6657 L45.9612,79.3467 C45.9612,78.2657 46.4362,77.2397 47.2602,76.5407 L65.8172,60.7787 C67.3522,59.4747 69.6442,59.6227 70.9992,61.1127 L73.6742,64.0557 C74.2862,64.7297 74.6252,65.6067 74.6252,66.5177 L74.6252,116.4967 C74.6252,117.6907 74.0482,118.8107 73.0752,119.5017 M102.1612,169.4187 L102.1612,139.1187 C102.1612,138.1237 101.7592,137.1717 101.0452,136.4787 L95.7152,131.3047 C94.2232,129.8567 94.2232,127.4877 95.7152,126.0397 L103.7162,118.2727 C104.4292,117.5807 104.8322,116.6277 104.8322,115.6337 L104.8322,43.8797 C104.8322,42.6967 104.2622,41.5867 103.2992,40.8977 L85.6172,28.2507 C84.1482,27.2007 82.1392,27.3517 80.8452,28.6087 L49.4752,59.0577 C48.7812,59.7327 47.5922,59.2547 47.5922,58.3007 L47.5922,49.2247 C47.5922,47.9537 46.9342,46.7737 45.8542,46.1057 L15.7312,27.4687 C14.1032,26.4617 11.9772,26.8477 10.8062,28.3627 L3.7872,37.4467 C2.5012,39.1117 2.8772,41.5167 4.6112,42.7087 L18.0472,51.9467 C19.0962,52.6687 19.6962,53.8817 19.6312,55.1537 L12.1902,201.0387 C12.1352,202.1267 12.5652,203.1837 13.3642,203.9247 L42.8742,231.2677 C44.4142,232.6947 46.8272,232.5717 48.2152,230.9967 L57.0862,220.9197 C58.2722,219.5737 58.3082,217.5657 57.1722,216.1767 L45.9712,202.4787 C45.4422,201.8327 45.1492,201.0247 45.1412,200.1897 L44.7692,162.3257 C44.7572,161.0827 45.3762,159.9177 46.4132,159.2307 L72.9612,141.6667 C73.6942,141.1827 74.6862,141.6917 74.6862,142.5517 L74.6862,168.6777 C74.6862,168.6777 73.2452,203.6437 108.8612,215.8227 C109.8232,216.1517 110.6952,215.1287 110.1792,214.2757 C107.2982,209.5137 102.1612,197.1367 102.1612,169.4187" id="Fill-1" fill="#FEFEFE"></path>
                <path d="M124.2973,106.1106 L117.7703,114.9866 C116.7393,116.3896 117.0883,118.3696 118.5363,119.3356 L122.0813,121.6986 C122.9313,122.2656 123.4413,123.2186 123.4413,124.2386 L123.4413,180.6906 C123.4413,181.4436 123.7193,182.1696 124.2223,182.7296 L150.9513,212.5136 C152.0243,213.7096 153.8413,213.8696 155.1063,212.8786 L173.1373,198.7536 C175.1413,197.1846 178.0733,198.6116 178.0733,201.1576 L178.0733,222.6236 C178.0733,222.6236 178.9113,247.2136 168.9673,261.7586 C167.2433,264.2806 169.7793,267.4856 172.6133,266.3466 C184.8903,261.4186 202.0273,249.5636 202.0273,221.7826 L202.0273,130.1586 C202.0273,129.3576 201.7123,128.5896 201.1513,128.0176 L179.0223,105.5206 C177.8133,104.2916 175.8273,104.3066 174.6363,105.5526 L170.0473,110.3616 C168.9013,111.5616 168.9233,113.4556 170.0963,114.6286 L176.7583,121.2906 C177.3313,121.8636 177.6523,122.6396 177.6523,123.4496 L177.6523,173.2566 C177.6523,174.1796 177.2353,175.0526 176.5183,175.6316 L157.8673,190.6956 C156.6823,191.6536 154.9723,191.5906 153.8613,190.5486 L150.0413,186.9666 C149.4253,186.3896 149.0763,185.5836 149.0763,184.7396 L149.0763,126.8286 C149.0763,126.0086 148.7463,125.2236 148.1613,124.6496 L128.8953,105.7396 C127.5693,104.4386 125.3983,104.6136 124.2973,106.1106" id="Fill-3" fill="#FEFEFE"></path>
                <g id="Group-7" transform="translate(205.000000, 0.949000)">
                    <mask id="mask-2" fill="white">
                        <use xlink:href="#path-1"></use>
                    </mask>
                    <g id="Clip-6"></g>
                    <path d="M60.9346,63.4013 L60.9346,55.1483 C60.9346,53.2423 59.1716,51.8253 57.3106,52.2363 L40.7246,55.8973 C38.8346,56.3143 37.0546,54.8473 37.1016,52.9123 L37.8696,21.6083 C37.8926,20.6473 37.4526,19.7343 36.6846,19.1543 L12.1696,0.6523 C10.8586,-0.3367 8.9936,-0.0797 7.9996,1.2283 L1.5966,9.6533 C0.5726,11.0003 0.8736,12.9293 2.2606,13.9003 L9.0566,18.6563 C9.8536,19.2143 10.3286,20.1263 10.3286,21.0993 L10.3286,59.3243 L10.3286,60.2113 C10.3286,61.6093 9.3546,62.8203 7.9896,63.1223 L4.6266,63.8643 C3.2606,64.1663 2.2886,65.3773 2.2886,66.7763 L2.2886,75.0293 C2.2886,76.9343 4.0516,78.3513 5.9126,77.9403 L6.7046,77.7653 C8.5646,77.3553 10.3286,78.7713 10.3286,80.6773 L10.3286,137.6703 C10.3286,137.7673 10.3226,137.8633 10.3136,137.9603 C10.0776,140.4693 7.3996,175.8903 42.6416,196.7573 C44.0936,197.6173 45.9776,197.0983 46.7866,195.6163 L56.4826,177.8393 C57.2986,176.3433 56.6946,174.4843 55.1676,173.7303 C48.9816,170.6743 35.0296,161.1453 35.0296,137.3423 L36.5966,73.4903 C36.6306,72.1193 37.5956,70.9473 38.9346,70.6513 L58.5956,66.3123 C59.9616,66.0113 60.9346,64.8003 60.9346,63.4013" id="Fill-5" fill="#FEFEFE" mask="url(#mask-2)"></path>
                </g>
                <path d="M334.6978,276.3386 L334.6978,267.5216 C334.6978,265.7916 333.0968,264.5056 331.4078,264.8786 L314.1448,268.6896 C312.4288,269.0676 310.8128,267.7366 310.8558,265.9806 L311.6358,234.1826 C311.6568,233.3106 311.2578,232.4816 310.5608,231.9566 L285.7138,213.2036 C284.5238,212.3046 282.8308,212.5386 281.9288,213.7256 L275.1868,222.5976 C274.2568,223.8196 274.5308,225.5706 275.7888,226.4516 L282.9368,231.4546 C283.6598,231.9616 284.0908,232.7886 284.0908,233.6716 L284.0908,272.0406 L284.0908,273.1486 C284.0908,274.4186 283.2078,275.5176 281.9678,275.7906 L278.1738,276.6286 C276.9338,276.9016 276.0508,278.0016 276.0508,279.2706 L276.0508,288.0886 C276.0508,289.8176 277.6518,291.1036 279.3408,290.7306 L280.8018,290.4076 C282.4898,290.0356 284.0908,291.3206 284.0908,293.0506 L284.0908,350.3996 C284.0908,350.4876 284.0868,350.5716 284.0778,350.6596 C283.8518,353.0266 281.0678,388.7226 316.6508,409.6186 C317.9708,410.3946 319.6788,409.9286 320.4118,408.5836 L330.3848,390.3016 C331.1248,388.9446 330.5868,387.2456 329.1938,386.5746 C323.1508,383.6636 308.7928,374.2056 308.7928,350.0586 L310.3648,285.9906 C310.3948,284.7466 311.2708,283.6826 312.4868,283.4146 L332.5748,278.9816 C333.8148,278.7076 334.6978,277.6086 334.6978,276.3386" id="Fill-8" fill="#FEFEFE"></path>
                <path d="M280.9189,3.4275 L273.2649,12.4725 C271.5809,14.4635 271.8289,17.4425 273.8189,19.1265 L279.2389,23.7125 C280.3389,24.6425 280.9539,26.0255 280.9079,27.4655 L276.4849,166.9965 C276.4469,168.1905 276.8639,169.3555 277.6509,170.2545 L293.5609,188.4385 C295.2949,190.4195 298.3149,190.5995 300.2719,188.8385 L309.9229,180.1525 C311.7979,178.4645 312.0149,175.5995 310.4149,173.6495 L301.2059,162.4275 C300.4479,161.5025 300.0679,160.3245 300.1449,159.1315 L302.3739,124.2015 C302.4609,122.8465 303.1269,121.5945 304.2019,120.7645 L322.8779,106.3575 C326.1479,103.8345 330.8529,106.4305 330.4609,110.5425 L329.0079,125.7955 C329.0079,125.7955 325.6179,168.3615 347.5819,179.4775 C349.4719,180.4335 351.7789,179.9125 353.1709,178.3165 L362.7559,167.3225 C364.0579,165.8285 364.2899,163.6925 363.3389,161.9555 C360.6029,156.9575 355.5059,145.2105 355.5059,127.0375 L355.5059,87.9275 C355.5059,86.2515 354.6169,84.6995 353.1689,83.8535 L336.5909,74.1565 C334.7929,73.1045 332.5189,73.3555 330.9929,74.7735 L312.3829,92.0735 C309.3209,94.9195 304.3439,92.6755 304.4499,88.4965 L306.1769,20.0815 C306.2139,18.6025 305.5559,17.1915 304.3979,16.2695 L287.4629,2.7835 C285.4669,1.1935 282.5669,1.4785 280.9189,3.4275" id="Fill-10" fill="#FEFEFE"></path>
                <path d="M381.313,58.8909 L370.013,71.8059 C368.317,73.7439 368.485,76.6829 370.391,78.4159 L379.04,86.2779 C380.062,87.2069 380.626,88.5369 380.585,89.9159 L378.65,154.9029 C378.604,156.4869 379.353,157.9889 380.647,158.9039 L399.045,171.9089 C401.069,173.3399 403.855,172.9639 405.428,171.0479 L412.929,161.9059 C414.579,159.8939 414.294,156.9269 412.291,155.2669 L403.183,147.7209 C402.054,146.7859 401.423,145.3789 401.475,143.9139 L402.967,101.7509 C403.021,100.2469 403.788,98.8579 405.032,98.0109 L424.943,84.4599 C428.193,82.2479 432.565,84.7389 432.32,88.6619 L428.911,143.2179 C428.824,144.6069 429.353,145.9629 430.358,146.9259 L445.346,161.2899 C447.203,163.0689 450.141,163.0379 451.959,161.2199 L460.131,153.0479 C462.035,151.1439 461.967,148.0389 459.983,146.2209 L455.262,141.8929 C454.249,140.9639 453.689,139.6399 453.731,138.2649 L454.838,101.7359 C454.883,100.2399 455.635,98.8539 456.863,97.9989 L475.386,85.1139 C478.653,82.8409 483.095,85.3759 482.799,89.3449 L479.81,129.5339 C479.805,129.6079 479.802,129.6799 479.803,129.7539 C479.824,131.3769 480.305,150.3779 491.462,158.3169 C493.379,159.6809 496.006,159.4379 497.622,157.7279 L505.925,148.9359 C507.582,147.1829 507.647,144.4679 506.074,142.6389 C502.976,139.0379 498.951,131.4019 500.545,116.7819 L504.279,83.1779 C504.279,83.1779 506.528,74.5559 490.002,62.6579 C488.4,61.5039 486.246,61.4579 484.604,62.5529 L463.771,76.4419 C460.577,78.5709 456.311,76.2059 456.424,72.3699 L456.48,70.4619 C456.535,68.6059 455.498,66.8899 453.83,66.0749 L441.328,59.9699 C439.734,59.1909 437.837,59.3709 436.418,60.4359 L411.445,79.1649 C408.329,81.5029 403.882,79.2789 403.882,75.3839 L403.882,74.1609 C403.882,72.7749 403.274,71.4589 402.219,70.5609 L387.934,58.4039 C385.965,56.7279 383.016,56.9459 381.313,58.8909" id="Fill-12" fill="#FEFEFE"></path>
                <path d="M36.3193,302.3884 L62.3243,280.0984 C63.9223,278.7284 66.3853,279.9214 66.3023,282.0234 L64.9023,317.4904 C64.8753,318.1674 64.5653,318.8024 64.0463,319.2384 L37.5743,341.5304 C35.9613,342.8894 33.5033,341.6674 33.6143,339.5594 L35.4813,304.0924 C35.5153,303.4334 35.8193,302.8174 36.3193,302.3884 M95.3393,316.8784 L97.4523,266.1454 C97.4853,265.3544 97.1283,264.5984 96.4963,264.1214 L72.0943,245.6954 C71.1233,244.9614 69.7573,245.0674 68.9103,245.9424 L41.3363,274.4204 C39.7613,276.0474 37.0143,274.8004 37.2023,272.5434 L37.6173,267.5654 C37.6963,266.6084 37.2013,265.6954 36.3553,265.2414 L9.9063,251.0374 C8.7683,250.4264 7.3503,250.8204 6.6923,251.9314 L0.3373,262.6554 C-0.3757,263.8594 0.0823,265.4154 1.3333,266.0404 L7.5753,269.1614 C8.4273,269.5884 8.9493,270.4754 8.9063,271.4274 L1.8283,427.6804 C1.7993,428.3074 2.0183,428.9234 2.4363,429.3924 L27.1583,457.1414 C28.0943,458.1924 29.7283,458.2214 30.7003,457.2044 L39.5143,447.9904 C40.3893,447.0754 40.4073,445.6384 39.5563,444.7024 L30.6603,434.9164 C30.2383,434.4524 30.0133,433.8434 30.0343,433.2164 L32.1783,367.8254 C32.2013,367.1064 32.5453,366.4354 33.1143,365.9964 L94.4033,318.6854 C94.9663,318.2504 95.3093,317.5894 95.3393,316.8784" id="Fill-14" fill="#FEFEFE"></path>
                <path d="M144.6313,405.3381 L135.2253,412.3931 C133.1663,413.9381 130.3183,413.8741 128.3283,412.2401 L118.9003,404.4951 C117.4893,403.3371 116.7353,401.5631 116.8773,399.7441 L121.2843,343.4281 C121.4163,341.7421 122.3033,340.2081 123.6983,339.2541 L128.1523,336.2061 C130.2513,334.7711 133.0563,334.9341 134.9743,336.6051 L146.4073,346.5631 C147.6683,347.6601 148.3703,349.2661 148.3223,350.9371 L146.8623,401.0321 C146.8133,402.7331 145.9923,404.3171 144.6313,405.3381 M147.2213,308.0011 L94.5773,338.1501 C92.9093,339.1071 91.8493,340.8541 91.7723,342.7751 L88.7743,417.7411 C88.7063,419.4261 89.4033,421.0511 90.6713,422.1631 L111.4933,440.4371 C113.5393,442.2321 116.5813,442.2911 118.6953,440.5761 L172.7453,396.7531 C174.0273,395.7131 174.7833,394.1601 174.8123,392.5111 L175.8043,334.9251 C175.8293,333.4911 175.3013,332.1031 174.3303,331.0471 L154.1073,309.0661 C152.3423,307.1471 149.4843,306.7051 147.2213,308.0011" id="Fill-16" fill="#FEFEFE"></path>
                <path d="M231.6533,309.4763 L222.7793,296.6593 C221.0303,294.1323 217.5013,293.6223 215.1173,295.5633 C206.4323,302.6373 188.5203,321.6243 188.5203,357.9063 C188.5203,396.9663 220.0183,416.3403 231.6363,422.1573 C234.0103,423.3463 236.8903,422.5923 238.3753,420.3923 L247.1713,407.3603 C248.8823,404.8253 248.0913,401.3643 245.4383,399.8413 C240.0673,396.7573 231.4273,391.4033 225.1153,385.5883 C222.6943,383.3563 222.8963,379.4743 225.5273,377.4943 L268.7503,344.9603 C270.0743,343.9643 270.8533,342.4023 270.8533,340.7453 L270.8533,311.9413 C270.8533,310.6963 270.4133,309.4923 269.6113,308.5403 L250.9653,286.4263 C249.1473,284.2693 245.9523,283.9253 243.7153,285.6453 L237.9183,290.1053 C235.6033,291.8863 235.1743,295.2073 236.9633,297.5173 L245.5333,308.5873 C246.2493,309.5123 246.6373,310.6483 246.6373,311.8173 L246.6373,338.7113 C246.6373,340.3023 245.9203,341.8073 244.6853,342.8093 L224.8023,358.9403 C221.5223,361.6013 216.6383,359.5223 216.2213,355.3193 C215.2823,345.8483 216.6623,330.4053 231.0273,316.2203 C232.8453,314.4243 233.1083,311.5773 231.6533,309.4763" id="Fill-18" fill="#FEFEFE"></path>
                <path d="M367.8091,268.1448 L357.6721,282.1808 C356.5541,283.7288 357.0591,285.9088 358.7441,286.8068 L361.9361,288.5098 C362.9761,289.0648 363.6201,290.1528 363.6051,291.3318 L362.5701,371.0138 C362.5591,371.8288 362.8651,372.6158 363.4221,373.2098 L384.5431,395.7388 C385.7611,397.0378 387.8121,397.0708 389.0711,395.8118 L393.4121,391.4708 C394.5361,390.3468 394.6471,388.5618 393.6711,387.3068 L388.5091,380.6708 C388.0791,380.1178 387.8451,379.4368 387.8451,378.7358 L387.8451,314.2908 C387.8451,313.5178 388.1301,312.7708 388.6441,312.1938 L404.4041,294.5128 C406.3301,292.3508 409.9081,293.7138 409.9081,296.6098 L409.9081,336.0418 C409.9081,338.8658 413.3351,340.2648 415.3111,338.2478 L434.8381,318.3138 C435.4151,317.7258 435.7381,316.9338 435.7381,316.1088 L435.7381,292.9618 C435.7381,292.0728 435.3621,291.2248 434.7041,290.6268 L414.8461,272.6168 C413.5911,271.4788 411.6621,271.5358 410.4761,272.7458 L392.7111,290.8898 C390.7351,292.9078 387.3071,291.5088 387.3071,288.6848 L387.3071,278.7668 C387.3071,277.6888 386.7571,276.6858 385.8481,276.1068 L372.0571,267.3308 C370.6481,266.4358 368.7861,266.7918 367.8091,268.1448" id="Fill-20" fill="#FEFEFE"></path>
                <g id="Group-24" transform="translate(442.000000, 240.949000)">
                    <mask id="mask-4" fill="white">
                        <use xlink:href="#path-3"></use>
                    </mask>
                    <g id="Clip-23"></g>
                    <path d="M5.8013,2.9956 L0.9613,9.5776 C-0.5077,11.5756 -0.0107,14.3946 2.0523,15.7696 L3.8933,16.9976 C5.1033,17.8036 5.8293,19.1616 5.8293,20.6146 L5.8293,75.8776 C5.8293,76.9496 6.2253,77.9836 6.9413,78.7816 L32.5303,107.2956 C34.0593,108.9986 36.6463,109.2246 38.4473,107.8146 L53.4323,96.0756 C56.2863,93.8406 60.4613,95.8736 60.4613,99.4986 L60.4613,118.3066 C60.4613,118.3066 61.1863,139.5736 53.2893,154.2516 C51.2753,157.9946 55.2393,162.1106 59.0453,160.2176 C70.7203,154.4076 84.4153,142.3006 84.4153,117.4666 L84.4153,26.3716 C84.4153,25.2306 83.9673,24.1366 83.1673,23.3226 L62.3463,2.1556 C60.6253,0.4056 57.7973,0.4266 56.1023,2.2026 L53.3083,5.1296 C51.6773,6.8376 51.7093,9.5356 53.3793,11.2056 L58.7673,16.5946 C59.5833,17.4096 60.0413,18.5156 60.0413,19.6686 L60.0413,68.3216 C60.0413,69.6356 59.4473,70.8776 58.4253,71.7036 L41.1323,85.6706 C39.4443,87.0336 37.0103,86.9436 35.4273,85.4606 L32.8383,83.0336 C31.9613,82.2116 31.4643,81.0636 31.4643,79.8616 L31.4643,23.0546 C31.4643,21.8876 30.9953,20.7686 30.1623,19.9516 L12.3493,2.4686 C10.4603,0.6156 7.3683,0.8646 5.8013,2.9956" id="Fill-22" fill="#FEFEFE" mask="url(#mask-4)"></path>
                </g>
                <path d="M383.3853,220.3699 C383.0043,221.3729 382.6533,222.4139 382.3353,223.4889 C382.6233,223.3729 382.9053,223.2779 383.1823,223.2079 C383.4593,223.1389 383.7423,223.0449 384.0293,222.9279 C385.4983,222.4659 386.8583,222.0119 388.1033,221.5599 C389.3493,221.1109 390.6803,220.5499 392.0973,219.8749 C391.3593,218.3849 390.5803,216.8679 389.7633,215.3299 C388.9453,213.7929 388.0913,212.2509 387.2043,210.7069 L387.0463,211.4259 C386.2693,212.8449 385.5593,214.3399 384.9123,215.9069 C384.2643,217.4739 383.7713,218.9369 383.4333,220.2899 L383.3853,220.3699 Z M367.1813,242.1249 L367.8513,241.2759 L367.5763,239.9179 C367.9883,237.0519 368.4563,234.2819 368.9853,231.6109 C369.5133,228.9399 370.0783,226.1939 370.6813,223.3659 C370.8603,222.4599 371.0503,221.5509 371.2513,220.6379 C371.4513,219.7289 371.6373,218.7999 371.8063,217.8489 C371.7203,217.6909 371.6543,217.5139 371.6043,217.3199 C371.5573,217.1299 371.5423,216.8939 371.5643,216.6179 C371.9463,215.6159 372.2323,214.7279 372.4233,213.9559 C372.6143,213.1829 372.7863,212.3909 372.9463,211.5789 C373.1143,210.6309 373.3163,209.6749 373.5483,208.7089 C373.7813,207.7429 374.1353,206.7719 374.6143,205.7889 L374.9013,205.0369 L375.6203,204.9239 C375.7693,204.7979 375.9313,204.6749 376.1073,204.5639 C376.2823,204.4499 376.5183,204.3579 376.8173,204.2839 L378.0163,204.1839 C379.2613,203.1909 380.2743,201.9489 381.0553,200.4629 C381.8363,198.9739 382.5663,197.2379 383.2443,195.2549 L383.7373,193.9749 L384.9213,194.3559 C385.1663,194.4299 385.5403,194.4719 386.0403,194.4809 C386.5413,194.4929 387.0693,194.5189 387.6233,194.5579 C388.5723,194.5469 389.5063,194.5719 390.4293,194.6339 C391.3513,194.6979 392.1053,194.9039 392.6923,195.2529 L393.1573,195.7489 C393.3603,196.1989 393.5423,196.6029 393.7023,196.9709 C393.8633,197.3379 394.0343,197.7029 394.2163,198.0629 C394.6123,198.9159 394.9843,199.7639 395.3323,200.6039 C395.6803,201.4459 396.0093,202.3939 396.3203,203.4479 C396.7483,204.2469 397.1673,205.0579 397.5793,205.8839 C397.9913,206.7099 398.3883,207.5259 398.7753,208.3359 C399.2993,209.5189 399.8313,210.6409 400.3713,211.7059 C400.9113,212.7719 401.5233,213.7609 402.2083,214.6759 C402.6333,214.5689 402.8943,214.5269 402.9903,214.5469 C403.4473,214.2059 404.0123,213.9269 404.6833,213.7139 L405.4993,213.4399 L405.9473,214.1419 C406.0643,214.2489 406.2033,214.3489 406.3633,214.4449 C406.5233,214.5419 406.7043,214.6309 406.9073,214.7169 C407.6003,214.5869 408.1363,214.5989 408.5153,214.7549 C408.8933,214.9069 409.2153,215.0649 409.4823,215.2239 C409.5893,215.2889 409.7193,215.3559 409.8743,215.4289 C410.0293,215.5059 410.1543,215.5539 410.2503,215.5749 L411.5143,215.7309 L411.1803,217.1069 C410.9363,218.1189 410.4433,219.1749 409.6993,220.2659 C408.9553,221.3619 408.0553,222.3359 407.0033,223.1889 C407.1623,223.4649 407.2863,223.7279 407.3723,223.9789 C407.4573,224.2299 407.5863,224.5149 407.7583,224.8339 C408.1423,225.6439 408.5033,226.4929 408.8403,227.3819 C409.1783,228.2719 409.4063,229.2229 409.5253,230.2339 C409.3783,231.4509 409.1273,232.5679 408.7723,233.5869 C408.4163,234.6039 407.9333,235.5639 407.3223,236.4639 C406.7103,237.3669 405.9713,238.1639 405.1043,238.8599 C404.2363,239.5529 403.2763,240.0569 402.2213,240.3679 C401.5933,240.3909 401.1173,240.3499 400.7983,240.2509 C400.4783,240.1509 400.1903,240.0409 399.9353,239.9229 C399.5293,239.7539 399.2093,239.6539 398.9743,239.6209 L398.0473,239.4479 L398.0613,238.4229 C398.1033,238.0519 398.0163,237.7559 397.8043,237.5389 C397.5903,237.3209 397.1953,237.0569 396.6193,236.7489 C396.4173,236.6649 396.2333,236.5639 396.0683,236.4459 C395.9023,236.3279 395.7133,236.2079 395.4993,236.0789 L393.8503,234.9309 L395.8153,233.8239 C397.0083,233.1619 397.7493,232.5109 398.0413,231.8689 C398.3333,231.2299 398.2653,230.2409 397.8363,228.8969 C396.7173,228.9519 395.8363,229.1399 395.1913,229.4609 C394.5473,229.7819 393.9063,230.1149 393.2673,230.4559 C392.3503,230.9589 391.4483,231.4249 390.5593,231.8509 C389.6703,232.2819 388.6713,232.6329 387.5643,232.9119 C386.8393,233.0939 386.0563,233.2239 385.2153,233.2999 L384.4953,233.4129 L384.1273,232.7589 C384.1053,232.6739 384.0273,232.5909 383.8943,232.5119 C383.7603,232.4329 383.6403,232.3609 383.5333,232.2949 C383.2573,232.0929 382.9153,231.8179 382.5103,231.4659 C382.1033,231.1149 381.9053,230.5979 381.9153,229.9159 C381.4993,229.5239 381.2053,229.0769 381.0333,228.5749 C380.9493,228.9609 380.8933,229.3269 380.8673,229.6699 C380.8413,230.0169 380.8223,230.3499 380.8133,230.6689 L380.7673,231.5649 L379.9683,231.9019 C379.9053,232.0099 379.8633,232.1559 379.8413,232.3419 C379.8203,232.5289 379.8423,232.6599 379.9063,232.7339 L380.3403,233.3719 L379.8443,234.1089 C379.7913,234.2579 379.7123,234.3919 379.6053,234.5099 C379.4993,234.6269 379.4133,234.7399 379.3493,234.8449 C379.3833,235.3359 379.3783,235.8139 379.3373,236.2759 C379.2943,236.7389 379.2423,237.2069 379.1783,237.6749 C379.1373,238.4109 379.1023,239.1219 379.0723,239.8099 C379.0403,240.4979 379.1063,241.1609 379.2673,241.7999 L379.2203,242.6949 C379.0933,243.0909 378.8913,243.4119 378.6143,243.6619 C378.3383,243.9149 378.0663,244.1409 377.8003,244.3429 C377.4173,244.6209 377.1623,244.8689 377.0343,245.0799 L377.0523,245.9599 L376.1253,246.3299 C375.6023,246.5969 375.2303,246.7809 375.0073,246.8819 C374.7833,246.9839 374.5233,247.0739 374.2243,247.1479 L373.3773,247.2939 C372.7363,246.9109 372.2223,246.6209 371.8333,246.4259 C371.4433,246.2269 371.0093,246.0789 370.5293,245.9719 L370.0173,245.5559 C369.7603,245.2599 369.5763,244.9759 369.4643,244.7129 C369.3513,244.4439 369.2163,244.1739 369.0543,243.8959 C368.8303,243.3659 368.6053,243.0129 368.3813,242.8429 L367.1813,242.1249 Z" id="Fill-25" fill="#FEFEFE"></path>
                <path d="M426.5034,221.2668 C426.1414,221.4508 425.9204,221.7438 425.8414,222.1468 C425.7614,222.5538 425.6964,222.9668 425.6444,223.3878 C425.5914,223.8088 425.5304,224.1988 425.4624,224.5558 C425.3934,224.9128 425.2104,225.1278 424.9114,225.2028 C424.9554,225.5558 424.9124,225.8828 424.7844,226.1858 C424.6584,226.4908 424.5434,226.8028 424.4424,227.1218 C424.3414,227.4418 424.2904,227.7728 424.2854,228.1138 C424.2814,228.4568 424.4174,228.8188 424.6954,229.2018 C424.4184,229.5428 424.2964,229.9598 424.3304,230.4488 C424.3634,230.9398 424.3784,231.4098 424.3804,231.8618 C424.3804,232.3148 424.2914,232.7248 424.1104,233.0868 C423.9294,233.4488 423.4934,233.6958 422.8014,233.8238 C422.7164,234.0278 422.7224,234.1398 422.8184,234.1598 C422.9134,234.1828 423.0144,234.3148 423.1224,234.5588 C422.6314,234.5928 422.2884,234.7128 422.0904,234.9198 C421.8944,235.1298 421.6304,235.2978 421.3014,235.4248 C420.4254,235.3738 419.6424,235.0958 418.9494,234.5898 C418.2554,234.0848 417.6064,233.4898 417.0034,232.8028 C416.4004,232.1168 415.8364,231.4098 415.3134,230.6808 C414.7904,229.9528 414.3044,229.3268 413.8554,228.8038 C413.8644,228.3028 413.7714,227.8398 413.5724,227.4128 C413.3764,226.9898 413.1324,226.6538 412.8434,226.4088 C413.8154,221.4518 414.9034,216.1458 416.1084,210.4948 C417.3134,204.8448 418.4064,199.2898 419.3884,193.8308 C420.4644,193.9678 421.5444,194.1608 422.6264,194.4098 C423.7084,194.6578 424.7244,194.9998 425.6734,195.4418 C426.6224,195.8828 427.4784,196.4478 428.2434,197.1408 C429.0054,197.8308 429.6004,198.6678 430.0294,199.6468 C430.0084,199.9238 429.9364,200.0418 429.8144,200.0078 C429.6914,199.9678 429.6034,200.0258 429.5514,200.1748 C429.7744,200.3458 429.9084,200.4708 429.9504,200.5508 C429.9944,200.6318 430.0144,200.7148 430.0164,200.8058 C430.0154,200.8978 430.0344,201.0158 430.0724,201.1658 C430.1094,201.3148 430.2244,201.4998 430.4174,201.7248 C430.2354,201.7258 430.1244,201.7768 430.0814,201.8778 C430.0384,201.9788 429.9004,202.0138 429.6664,201.9808 C429.9554,202.4088 430.1044,202.7788 430.1164,203.0918 C430.1274,203.4068 430.0984,203.6968 430.0294,203.9628 C429.9604,204.2298 429.9194,204.5138 429.9034,204.8108 C429.8884,205.1108 429.9984,205.4578 430.2324,205.8488 C430.1054,205.8818 430.0174,205.9378 429.9694,206.0168 C429.9224,206.0978 429.8834,206.1748 429.8574,206.2498 C429.8304,206.3238 429.7944,206.4028 429.7464,206.4808 C429.6984,206.5628 429.6054,206.5968 429.4674,206.5858 C429.8304,207.4918 430.1094,208.4188 430.3034,209.3668 C430.4964,210.3168 430.7024,211.2708 430.9234,212.2348 C431.1434,213.1988 431.4064,214.1968 431.7114,215.2308 C432.0174,216.2658 432.4384,217.3028 432.9724,218.3458 C434.2814,217.0658 435.2164,215.6068 435.7794,213.9698 C436.3404,212.3328 436.6894,210.5678 436.8254,208.6768 C436.9604,206.7848 436.9234,204.7988 436.7184,202.7208 C436.5114,200.6438 436.3164,198.5168 436.1304,196.3428 C436.4184,195.8638 436.5984,195.3198 436.6724,194.7118 C436.7454,194.1038 436.7884,193.4698 436.8034,192.8088 C436.8184,192.1478 436.8334,191.4868 436.8484,190.8258 C436.8634,190.1668 436.9334,189.5468 437.0614,188.9718 C437.7224,188.8968 438.3164,188.9608 438.8434,189.1698 C439.3714,189.3738 439.8734,189.6118 440.3494,189.8788 C440.8224,190.1418 441.3134,190.3808 441.8204,190.5928 C442.3254,190.8038 442.9104,190.8748 443.5704,190.7968 C444.2654,191.3938 444.9104,191.9788 445.5094,192.5528 C446.1064,193.1278 446.5654,193.7828 446.8864,194.5168 C446.7594,194.9128 446.6964,195.3358 446.6974,195.7878 C446.6974,196.2418 446.6884,196.6968 446.6684,197.1548 C446.6484,197.6138 446.5764,198.0518 446.4544,198.4668 C446.3334,198.8828 446.1114,199.2668 445.7934,199.6188 C445.9444,200.7608 446.0394,201.8108 446.0784,202.7738 C446.1174,203.7408 446.1534,204.6948 446.1874,205.6388 C446.2204,206.5808 446.2954,207.5478 446.4084,208.5368 C446.5224,209.5298 446.7454,210.5958 447.0784,211.7348 C446.9844,212.8028 446.8844,213.9348 446.7794,215.1408 C446.6754,216.3458 446.6294,217.4228 446.6414,218.3718 C446.0994,219.0968 445.7334,219.8898 445.5434,220.7528 C445.3524,221.6178 445.1404,222.4868 444.9084,223.3618 C444.7794,223.5748 444.6844,223.6458 444.6194,223.5688 C444.5554,223.4958 444.3914,223.4698 444.1254,223.4908 C444.2114,223.6508 444.2434,223.7788 444.2224,223.8748 C444.2004,223.9708 444.1664,224.0568 444.1184,224.1388 C444.0704,224.2178 444.0514,224.3258 444.0634,224.4578 C444.0734,224.5908 444.1494,224.7548 444.2874,224.9468 C443.7554,225.3508 443.3134,225.8498 442.9624,226.4328 C442.6124,227.0208 442.2184,227.5718 441.7834,228.0908 C441.3474,228.6088 440.7714,229.0258 440.0584,229.3398 C439.3454,229.6568 438.3374,229.7518 437.0374,229.6258 C434.9684,228.7868 433.0534,227.7068 431.2924,226.3828 C429.5314,225.0588 427.9354,223.3538 426.5034,221.2668" id="Fill-27" fill="#FEFEFE"></path>
                <path d="M466.1768,209.0305 C466.9868,208.4645 467.7788,207.8815 468.5558,207.2775 C469.3328,206.6725 470.0318,206.0325 470.6558,205.3545 C471.2778,204.6775 471.8058,203.9425 472.2418,203.1525 C472.6768,202.3635 472.9738,201.4725 473.1318,200.4815 C472.7478,200.0345 472.2918,199.6635 471.7628,199.3655 C471.2338,199.0675 470.7118,198.7905 470.1958,198.5365 C469.6768,198.2805 469.1678,198.0125 468.6668,197.7315 C468.1648,197.4495 467.7188,197.0655 467.3228,196.5735 C466.7458,196.6295 466.2158,196.5915 465.7308,196.4655 C465.2448,196.3395 464.7708,196.2095 464.3078,196.0775 C463.8438,195.9455 463.3618,195.8295 462.8608,195.7285 C462.3598,195.6285 461.8038,195.6315 461.1978,195.7385 C460.1408,195.5065 459.2148,195.3775 458.4138,195.3515 C457.6148,195.3275 456.9818,195.1935 456.5118,194.9475 C456.2138,195.0235 455.9938,195.1455 455.8568,195.3155 C456.6918,196.8295 457.3938,198.2725 457.9668,199.6445 C458.5398,201.0205 459.0168,202.4175 459.3988,203.8415 C459.7778,205.2605 460.0708,206.7395 460.2768,208.2745 C460.4818,209.8105 460.6558,211.4875 460.7968,213.3095 C461.2128,213.1605 461.5818,212.9645 461.9078,212.7245 C462.2318,212.4835 462.5528,212.2335 462.8728,211.9695 C463.1918,211.7095 463.5358,211.4525 463.9028,211.2005 C464.2698,210.9495 464.7248,210.7335 465.2678,210.5505 C465.3318,210.2635 465.4588,210.0055 465.6508,209.7755 C465.8418,209.5465 466.0168,209.2985 466.1768,209.0305 M480.4408,201.6985 C480.4518,201.9255 480.4538,202.1145 480.4488,202.2745 C480.4438,202.4365 480.4358,202.5845 480.4268,202.7235 C480.4158,202.8615 480.4348,203.0285 480.4838,203.2185 C480.5318,203.4115 480.5938,203.6565 480.6688,203.9545 C479.9588,206.5345 478.8278,208.8355 477.2758,210.8585 C475.7228,212.8805 473.9318,214.7695 471.9058,216.5255 C469.8788,218.2845 467.7278,219.9595 465.4548,221.5485 C463.1828,223.1425 460.9928,224.7935 458.8858,226.5015 C457.7998,226.5045 456.9138,226.2725 456.2318,225.8115 C455.5488,225.3485 454.9688,224.7575 454.4928,224.0375 C454.0178,223.3215 453.6058,222.4955 453.2578,221.5645 C452.9088,220.6315 452.5628,219.6645 452.2208,218.6625 C452.2318,218.1635 452.3128,217.7255 452.4668,217.3445 C452.6208,216.9675 452.6238,216.4805 452.4728,215.8825 C452.5338,214.6895 452.6018,213.5155 452.6738,212.3635 C452.7468,211.2145 452.6868,210.0735 452.4928,208.9435 C452.5338,208.5705 452.7088,208.2775 453.0178,208.0635 C452.7148,205.9645 452.2038,203.8855 451.4798,201.8215 C450.7568,199.7635 449.9088,197.8805 448.9358,196.1755 C448.8718,195.7405 448.8468,195.4155 448.8638,195.2085 C448.8778,194.9995 448.8318,194.8655 448.7268,194.8025 C448.5968,194.4725 448.6718,194.2735 448.9488,194.2035 C449.2248,194.1335 449.5118,194.0595 449.8108,193.9855 C449.6508,193.3455 449.3718,192.7365 448.9768,192.1555 C448.5808,191.5755 448.1748,190.9075 447.7588,190.1515 C447.8948,189.4375 447.9288,188.7605 447.8588,188.1225 C447.7868,187.4815 447.8428,186.8915 448.0238,186.3455 C450.5068,186.4915 452.9328,186.8095 455.2998,187.2995 C457.6668,187.7915 459.9308,188.0145 462.0948,187.9665 C463.9078,188.6915 465.7608,189.3885 467.6548,190.0685 C469.5458,190.7455 471.3178,191.5695 472.9658,192.5385 C474.6148,193.5045 476.0958,194.7045 477.4078,196.1415 C478.7228,197.5775 479.7338,199.4295 480.4408,201.6985" id="Fill-29" fill="#FEFEFE"></path>
            </g>
        </g>
    </g>
</svg>